<?xml version="1.0" encoding="utf-8"?>
<!-- Generator: Adobe Illustrator 24.0.1, SVG Export Plug-In . SVG Version: 6.00 Build 0)  -->
<svg version="1.1" id="Layer_1" xmlns="http://www.w3.org/2000/svg" xmlns:xlink="http://www.w3.org/1999/xlink" x="0px" y="0px"
	 viewBox="0 0 674.06 300" style="enable-background:new 0 0 674.06 300;" xml:space="preserve">
<style type="text/css">
	.st0{fill:#FFFFFF;}
</style>
<g>
	<path class="st0" d="M69.05,90.79c0,0.3-0.03,0.66-0.1,1.09c-0.07,0.43-0.17,0.87-0.29,1.32c-0.13,0.44-0.27,0.87-0.45,1.26
		c-0.17,0.4-0.36,0.71-0.56,0.94c-0.55,0.66-1.53,0.99-2.94,0.99c0-1.55-0.22-2.84-0.65-3.86c-0.21-0.48-0.58-0.88-1.11-1.21
		c-0.54-0.33-1.13-0.61-1.79-0.84c-0.66-0.23-1.33-0.39-2-0.5c-0.67-0.1-1.25-0.15-1.73-0.15c-1.09,0-2.15,0.02-3.16,0.07
		c-1.01,0.05-2,0.14-2.97,0.29c-0.97,0.15-1.95,0.35-2.94,0.62c-0.99,0.26-2.02,0.61-3.09,1.04c-0.82,0.34-1.67,0.75-2.56,1.21
		c-0.89,0.47-1.71,1-2.46,1.59c-0.75,0.59-1.4,1.24-1.95,1.95c-0.55,0.71-0.89,1.48-1.03,2.32c-0.05,0.64,0.15,1.37,0.58,2.19
		c0.43,0.82,1.02,1.62,1.76,2.39c0.74,0.77,1.59,1.48,2.56,2.12c0.97,0.64,1.98,1.11,3.03,1.4c0.18,0.07,0.6,0.22,1.26,0.44
		c0.66,0.23,1.37,0.47,2.14,0.72c0.76,0.25,1.47,0.48,2.12,0.7c0.65,0.22,1.07,0.35,1.25,0.39c5.15,1.32,8.97,2.89,11.47,4.7
		c2.5,1.81,3.74,4.03,3.74,6.65c0,0.84-0.19,1.68-0.56,2.51c-0.38,0.83-0.85,1.63-1.42,2.39c-0.57,0.76-1.19,1.46-1.85,2.1
		c-0.66,0.64-1.28,1.17-1.85,1.61c-0.66,0.52-1.41,1.07-2.26,1.62c-0.84,0.56-1.74,1.1-2.7,1.62c-0.96,0.52-1.95,1.01-2.97,1.47
		s-2.06,0.85-3.11,1.2c-1.03,0.34-2.1,0.65-3.23,0.94c-1.13,0.28-2.24,0.53-3.35,0.73s-2.17,0.37-3.18,0.5
		c-1.01,0.13-1.92,0.19-2.72,0.19c-0.59,0-1.36-0.09-2.31-0.26s-1.87-0.41-2.79-0.72c-0.91-0.31-1.69-0.67-2.34-1.09
		c-0.65-0.42-0.97-0.87-0.97-1.35c0-0.3,0.04-0.66,0.12-1.09c0.08-0.43,0.19-0.85,0.34-1.26c0.15-0.41,0.32-0.76,0.51-1.04
		c0.19-0.28,0.42-0.43,0.67-0.43c0.46,0,0.93,0.07,1.42,0.22c0.49,0.15,1.07,0.31,1.74,0.5c0.67,0.18,1.47,0.35,2.39,0.5
		c0.92,0.15,2.04,0.22,3.37,0.22c1.37,0,2.79-0.14,4.26-0.43c1.47-0.28,2.91-0.67,4.32-1.15c1.41-0.48,2.76-1.03,4.05-1.64
		s2.44-1.25,3.47-1.91c0.48-0.32,1.01-0.69,1.59-1.11c0.58-0.42,1.12-0.88,1.62-1.38c0.5-0.5,0.92-1.04,1.26-1.61
		c0.34-0.57,0.51-1.16,0.51-1.78c0-0.87-0.64-1.7-1.91-2.5c-1.25-0.77-2.54-1.38-3.84-1.81c-1.31-0.43-2.48-0.77-3.5-1.03
		c-1.25-0.32-2.66-0.74-4.22-1.26c-1.56-0.52-3.28-1.15-5.14-1.88c-3.1-1.18-5.72-2.92-7.86-5.2c-2.14-2.28-3.21-5.02-3.21-8.24
		c-0.05-1.5,0.42-2.95,1.38-4.34c0.97-1.39,2.27-2.68,3.91-3.86c1.64-1.18,3.51-2.24,5.62-3.16s4.28-1.65,6.51-2.17
		c0.46-0.09,1.01-0.19,1.66-0.31c0.65-0.11,1.32-0.21,2.02-0.29c0.7-0.08,1.37-0.15,2.02-0.21c0.65-0.06,1.2-0.09,1.66-0.09
		c0.55,0,1.24,0.04,2.07,0.12c0.83,0.08,1.69,0.19,2.56,0.32c0.88,0.14,1.71,0.31,2.49,0.51c0.79,0.21,1.42,0.44,1.9,0.72
		c1.16,0.62,2.07,1.36,2.73,2.22C68.71,89.13,69.05,89.97,69.05,90.79z"/>
	<path class="st0" d="M137.1,107.71c0,0.46-0.34,1.21-1.03,2.26c-0.27,0.41-0.6,0.87-0.99,1.38c-0.39,0.51-0.79,1.02-1.2,1.52
		c-0.41,0.5-0.82,0.98-1.23,1.44c-0.41,0.46-0.78,0.84-1.09,1.16c-1.34,1.34-2.75,2.72-4.2,4.12c-1.46,1.4-2.97,2.68-4.55,3.85
		s-3.2,2.12-4.87,2.87c-1.67,0.75-3.4,1.15-5.18,1.2c-2.67,0-4.59-1.1-5.78-3.32c-0.57-1.09-1.07-2.4-1.49-3.91
		c-0.42-1.52-0.73-3.38-0.94-5.59c-0.09-1-0.19-1.93-0.31-2.77c-0.11-0.84-0.26-1.57-0.44-2.17c-0.18-0.6-0.43-1.07-0.73-1.4
		c-0.31-0.33-0.71-0.5-1.21-0.5c-0.41,0-0.93,0.19-1.57,0.58c-0.64,0.39-1.34,0.92-2.12,1.61c-0.78,0.68-1.58,1.5-2.43,2.44
		c-0.84,0.95-1.67,1.98-2.5,3.09c-0.5,0.68-1.11,1.54-1.83,2.56c-0.72,1.03-1.48,2.12-2.27,3.28c-0.8,1.16-1.6,2.34-2.41,3.54
		c-0.81,1.2-1.56,2.31-2.24,3.33c-0.14,0.21-0.42,0.54-0.85,0.99c-0.43,0.46-0.91,0.92-1.42,1.38c-0.51,0.47-1.01,0.87-1.49,1.21
		s-0.85,0.51-1.13,0.51c-0.46,0-0.9-0.04-1.33-0.12c-0.43-0.08-0.82-0.21-1.15-0.39c-0.33-0.18-0.6-0.42-0.8-0.7
		c-0.21-0.28-0.31-0.64-0.31-1.08c0-0.3,0.04-0.75,0.14-1.35c0.09-0.6,0.19-1.24,0.31-1.91c0.11-0.67,0.24-1.32,0.38-1.95
		c0.14-0.63,0.25-1.12,0.34-1.49c0.32-1.85,0.65-3.74,0.99-5.69s0.68-3.9,1.03-5.86c0.34-1.96,0.67-3.91,0.99-5.84
		c0.32-1.94,0.6-3.82,0.85-5.64c0.07-0.55,0.16-1.24,0.27-2.07c0.11-0.83,0.23-1.73,0.34-2.7c0.11-0.97,0.23-1.98,0.36-3.02
		c0.12-1.05,0.25-2.07,0.38-3.06s0.23-1.9,0.33-2.73c0.09-0.83,0.17-1.53,0.24-2.1c0.07-0.55,0.21-1.15,0.41-1.81
		c0.21-0.66,0.46-1.27,0.77-1.83c0.31-0.56,0.65-1.03,1.03-1.42c0.38-0.39,0.76-0.58,1.14-0.58c0.36,0,0.76,0.08,1.18,0.24
		c0.42,0.16,0.81,0.41,1.16,0.75c0.35,0.34,0.65,0.78,0.89,1.32c0.24,0.54,0.36,1.18,0.36,1.93c0,1.82-0.15,3.66-0.44,5.52
		c-0.3,1.86-0.66,3.69-1.08,5.49c-0.42,1.8-0.87,3.54-1.35,5.21s-0.89,3.25-1.23,4.73c-0.09,0.39-0.23,0.99-0.43,1.81
		c-0.19,0.82-0.41,1.77-0.63,2.85c-0.23,1.08-0.47,2.24-0.72,3.49c-0.25,1.24-0.48,2.46-0.7,3.66c-0.22,1.2-0.4,2.33-0.55,3.4
		c-0.15,1.07-0.25,1.97-0.29,2.7c0,0.14,0.07,0.3,0.22,0.48c0.15,0.18,0.28,0.27,0.39,0.27h0.14c0.98-1.64,2-3.26,3.06-4.85
		c1.06-1.59,2.11-3.12,3.16-4.56c1.05-1.45,2.08-2.8,3.09-4.05c1.01-1.25,1.98-2.35,2.89-3.28c1.53-1.57,3.12-2.81,4.77-3.73
		c1.65-0.91,3.15-1.37,4.49-1.37c0.18,0,0.43,0.08,0.73,0.24c0.31,0.16,0.63,0.36,0.96,0.62c0.33,0.25,0.63,0.53,0.91,0.84
		s0.47,0.62,0.58,0.94c0.46,1.23,0.79,2.46,1.01,3.69c0.22,1.23,0.39,2.53,0.53,3.9c0.14,1.34,0.3,2.64,0.5,3.88
		c0.19,1.24,0.44,2.34,0.73,3.3c0.3,0.96,0.66,1.73,1.09,2.31c0.43,0.58,0.96,0.87,1.57,0.87c1.23,0,2.48-0.24,3.74-0.72
		c1.27-0.48,2.51-1.08,3.73-1.81c1.22-0.73,2.37-1.52,3.45-2.38s2.06-1.66,2.92-2.41c0.77-0.66,1.62-1.4,2.55-2.2
		c0.92-0.81,1.93-1.73,3.03-2.75c2.23-2.03,3.52-3.04,3.86-3.04S137.1,106.78,137.1,107.71z"/>
	<path class="st0" d="M168.85,111.95v0.07c0,0.5-0.23,1.16-0.68,1.98c-0.46,0.82-1.07,1.74-1.83,2.77s-1.65,2.12-2.65,3.28
		c-1,1.16-2.05,2.34-3.14,3.52c-1.3,1.37-2.65,2.68-4.05,3.95c-1.4,1.26-2.92,2.49-4.56,3.67c-3.19,2.37-6.04,3.55-8.54,3.55
		c-2.76,0-4.9-0.92-6.43-2.77c-1.53-1.87-2.56-4.12-3.11-6.77c-0.55-2.62-0.82-5.32-0.82-8.1c0-1.16,0.14-2.97,0.41-5.43
		c0.14-1.23,0.27-2.29,0.41-3.18s0.28-1.61,0.44-2.15c0.32-1.07,0.99-2,2.02-2.8c1.05-0.84,2.14-1.26,3.28-1.26
		c0.62,0,0.92,0.58,0.92,1.74c0,0.77-0.07,1.65-0.22,2.63c-0.15,0.98-0.3,1.95-0.46,2.91c-0.3,1.8-0.51,3.41-0.65,4.84
		c-0.14,1.42-0.21,2.66-0.21,3.71c0,2.32,0.32,4.65,0.96,6.97c0.64,2.39,1.79,3.59,3.45,3.59c1.69,0,3.65-0.62,5.88-1.85
		c1.12-0.64,2.23-1.34,3.35-2.12c1.12-0.77,2.23-1.64,3.35-2.6c1.16-0.96,2.26-1.92,3.28-2.89c1.03-0.97,2.05-1.97,3.08-2.99
		s1.93-1.98,2.72-2.87c0.79-0.89,1.48-1.71,2.07-2.46c0.04-0.09,0.14-0.26,0.27-0.51c0.14-0.25,0.26-0.38,0.38-0.38l0.07,0.03
		c0.18,0,0.32,0.06,0.41,0.19c0.09,0.13,0.19,0.31,0.31,0.56C168.77,111.29,168.87,111.68,168.85,111.95z M146.46,84.16
		c0,1.48-0.39,2.75-1.16,3.79c-0.75,1.05-1.86,1.57-3.32,1.57c-0.91,0-1.93-0.14-3.04-0.41c-1.09-0.27-1.64-0.72-1.64-1.33
		c0-1.12,0.35-2.18,1.04-3.2c0.69-1.01,1.53-1.84,2.51-2.48c0.8-0.46,1.31-0.68,1.54-0.68c1.3,0,2.3,0.18,3.01,0.53
		C146.11,82.31,146.46,83.04,146.46,84.16z"/>
	<path class="st0" d="M210.89,124.05c0,0.8-0.27,1.67-0.82,2.63s-1.35,1.85-2.41,2.68c-1.06,0.83-2.38,1.53-3.95,2.08
		c-1.57,0.56-3.37,0.84-5.4,0.84c-2.05,0-3.86-0.36-5.43-1.08s-2.9-1.84-3.98-3.37c-1.08-1.53-1.9-3.46-2.46-5.81
		c-0.56-2.35-0.84-5.15-0.84-8.41c-0.37,0.23-0.9,0.69-1.61,1.38c-0.71,0.7-1.5,1.52-2.38,2.46c-0.88,0.95-1.79,1.97-2.73,3.06
		c-0.95,1.09-1.85,2.15-2.7,3.16c-0.85,1.01-1.62,1.95-2.29,2.82c-0.67,0.87-1.17,1.54-1.49,2.02c-0.57,0.87-1.03,1.59-1.37,2.17
		s-0.66,1.05-0.96,1.4c-0.3,0.35-0.61,0.6-0.94,0.75c-0.33,0.15-0.76,0.22-1.28,0.22c-0.48,0-0.92-0.07-1.33-0.22
		c-0.41-0.15-0.76-0.34-1.06-0.58c-0.3-0.24-0.52-0.51-0.68-0.8c-0.16-0.3-0.24-0.59-0.24-0.89c0-0.41,0.02-0.88,0.07-1.42
		c0.04-0.54,0.11-1.08,0.19-1.64c0.08-0.56,0.16-1.11,0.26-1.66c0.09-0.55,0.17-1.04,0.24-1.47c0.23-1.21,0.48-2.62,0.75-4.24
		c0.27-1.62,0.49-3.59,0.65-5.91c0.11-1.48,0.22-2.88,0.32-4.2c0.1-1.32,0.15-2.7,0.15-4.14c0-0.68,0.08-1.34,0.24-1.98
		c0.16-0.64,0.4-1.2,0.74-1.69c0.33-0.49,0.74-0.88,1.23-1.18c0.49-0.3,1.08-0.44,1.76-0.44c0.5,0,0.91,0.07,1.23,0.21
		c0.32,0.14,0.57,0.32,0.75,0.55c0.18,0.23,0.3,0.48,0.36,0.77c0.06,0.29,0.08,0.58,0.08,0.87c0,0.34-0.02,0.68-0.07,1.01
		c-0.05,0.33-0.07,0.62-0.07,0.87c0,0.07-0.03,0.32-0.1,0.77s-0.17,1.01-0.29,1.69s-0.27,1.45-0.44,2.29
		c-0.17,0.84-0.35,1.69-0.53,2.53c-0.39,1.75-0.67,3.16-0.84,4.22c-0.17,1.06-0.3,1.97-0.38,2.73c-0.08,0.76-0.14,1.48-0.17,2.14
		c-0.04,0.66-0.11,1.46-0.22,2.39c0.5-0.68,1.21-1.53,2.12-2.55c0.91-1.01,1.86-2.06,2.84-3.14c0.98-1.08,1.92-2.13,2.82-3.14
		c0.9-1.01,1.61-1.86,2.14-2.55c0.68-0.91,1.38-1.74,2.08-2.5c0.71-0.75,1.44-1.4,2.19-1.95s1.55-0.97,2.39-1.28
		c0.84-0.31,1.74-0.46,2.7-0.46c0.66,0,1.08,0.16,1.26,0.48c0.18,0.32,0.27,0.71,0.27,1.16c0,0.18-0.01,0.37-0.02,0.56
		c-0.01,0.19-0.02,0.38-0.02,0.56c0,0.18-0.03,0.51-0.1,0.97c-0.07,0.47-0.14,0.97-0.21,1.5c-0.07,0.54-0.13,1.04-0.19,1.52
		s-0.08,0.81-0.08,0.99c0,1.98,0.15,3.8,0.44,5.45c0.3,1.65,0.77,3.08,1.44,4.27c0.66,1.2,1.54,2.13,2.63,2.79
		c1.09,0.66,2.44,0.99,4.03,0.99c1.03,0,1.93-0.06,2.72-0.19c0.79-0.13,1.54-0.34,2.26-0.63c0.72-0.3,1.45-0.67,2.19-1.13
		c0.74-0.46,1.58-1.03,2.51-1.71c0.23-0.18,0.46-0.35,0.68-0.51c0.18-0.11,0.36-0.23,0.55-0.34c0.18-0.11,0.33-0.17,0.44-0.17
		L210.89,124.05z"/>
	<path class="st0" d="M292.48,81.12c0.04,0.82-0.02,1.84-0.19,3.06c-0.17,1.22-0.4,2.61-0.68,4.17c-0.29,1.56-0.61,3.25-0.97,5.06
		c-0.37,1.81-0.72,3.71-1.08,5.71c-0.35,1.99-0.68,4.04-0.97,6.15c-0.3,2.11-0.52,4.22-0.68,6.34c-0.02,0.16-0.06,0.62-0.12,1.37
		c-0.06,0.75-0.13,1.68-0.21,2.79c-0.08,1.11-0.17,2.34-0.26,3.69c-0.09,1.36-0.17,2.73-0.24,4.12c-0.07,1.39-0.12,2.75-0.15,4.08
		c-0.03,1.33-0.03,2.51,0.02,3.54c0.02,0.59-0.12,1.16-0.43,1.71c-0.31,0.55-0.68,1.04-1.13,1.49c-0.45,0.44-0.9,0.8-1.37,1.06
		c-0.47,0.26-0.86,0.39-1.18,0.39c-0.27,0-0.58-0.06-0.92-0.19c-0.34-0.13-0.67-0.31-0.97-0.55c-0.31-0.24-0.57-0.55-0.79-0.92
		s-0.35-0.8-0.39-1.28c-0.02-0.36,0.01-1,0.1-1.9c0.09-0.9,0.22-1.95,0.38-3.16c0.16-1.21,0.34-2.5,0.53-3.88
		c0.19-1.38,0.36-2.72,0.51-4.02c0.15-1.3,0.26-2.51,0.32-3.62c0.07-1.12,0.08-2.02,0.03-2.7c-0.05-0.55-0.26-0.96-0.65-1.25
		c-0.39-0.28-0.85-0.43-1.4-0.43c-0.73,0-1.69,0.05-2.89,0.14c-1.2,0.09-2.44,0.19-3.73,0.29s-2.54,0.19-3.74,0.27
		c-1.21,0.08-2.2,0.12-2.97,0.12c-0.16,0-0.59,0.02-1.3,0.05c-0.71,0.03-1.55,0.09-2.53,0.15c-0.98,0.07-2.02,0.14-3.11,0.22
		c-1.09,0.08-2.13,0.17-3.09,0.26c-0.97,0.09-1.8,0.19-2.49,0.29c-0.7,0.1-1.11,0.19-1.25,0.26c-0.14,0.09-0.28,0.37-0.43,0.84
		c-0.15,0.47-0.29,1.04-0.43,1.71c-0.14,0.67-0.27,1.42-0.39,2.26c-0.13,0.83-0.24,1.65-0.34,2.46c-0.1,0.81-0.19,1.58-0.26,2.32
		c-0.07,0.74-0.11,1.36-0.14,1.86c-0.05,1.34-0.09,2.67-0.14,3.98c-0.05,1.31-0.17,2.48-0.38,3.5s-0.53,1.86-0.97,2.5
		c-0.45,0.64-1.08,0.96-1.9,0.96c-0.3,0-0.66-0.15-1.09-0.46c-0.43-0.31-0.85-0.69-1.25-1.15c-0.4-0.46-0.75-0.93-1.04-1.44
		c-0.3-0.5-0.46-0.96-0.48-1.37c-0.05-0.43-0.02-0.93,0.07-1.5c0.09-0.57,0.21-1.15,0.34-1.74c0.14-0.59,0.27-1.16,0.41-1.71
		s0.24-1.01,0.31-1.4c0.32-1.48,0.64-3.18,0.97-5.11c0.33-1.93,0.66-4,0.97-6.22c0.32-2.22,0.64-4.55,0.96-6.99
		c0.32-2.44,0.63-4.92,0.92-7.43c0.3-2.52,0.58-5.03,0.85-7.54c0.27-2.51,0.54-4.94,0.79-7.31c0.02-0.27,0.11-0.56,0.27-0.87
		c0.16-0.31,0.37-0.58,0.63-0.82s0.57-0.42,0.92-0.55c0.35-0.13,0.72-0.15,1.11-0.09c1.09,0.21,1.9,0.56,2.43,1.08
		c0.52,0.51,0.83,1.23,0.92,2.14c0.14,1.57,0.06,3.25-0.24,5.04c-0.3,1.79-0.64,3.59-1.04,5.42c-0.4,1.82-0.76,3.62-1.09,5.4
		s-0.46,3.45-0.39,5.02c0.02,0.32,0.18,0.56,0.48,0.73c0.3,0.17,0.65,0.3,1.06,0.39c0.41,0.09,0.83,0.15,1.26,0.17
		c0.43,0.02,0.81,0.03,1.13,0.03c0.48,0,1.4-0.02,2.75-0.07c1.36-0.05,2.93-0.12,4.72-0.22s3.67-0.24,5.64-0.41
		c1.97-0.17,3.81-0.38,5.52-0.62s3.16-0.52,4.36-0.84c1.2-0.32,1.92-0.68,2.17-1.09c0.16-0.25,0.34-0.77,0.53-1.56
		c0.19-0.79,0.4-1.77,0.62-2.96c0.22-1.18,0.43-2.52,0.63-4.02c0.21-1.49,0.39-3.07,0.56-4.73c0.17-1.66,0.31-3.37,0.41-5.11
		c0.1-1.74,0.15-3.46,0.15-5.14c0-0.21,0.1-0.47,0.29-0.79c0.19-0.32,0.46-0.63,0.79-0.92c0.33-0.3,0.71-0.55,1.13-0.77
		c0.42-0.22,0.87-0.32,1.35-0.32c0.32,0,0.68,0.05,1.08,0.15s0.78,0.26,1.15,0.46c0.36,0.21,0.67,0.47,0.92,0.79
		C292.32,80.28,292.45,80.66,292.48,81.12z"/>
	<path class="st0" d="M335.13,103.68c0,0.39-0.01,0.84-0.03,1.35c-0.02,0.51-0.06,1.1-0.1,1.76c-0.05,0.64-0.1,1.3-0.15,1.98
		c-0.06,0.68-0.12,1.39-0.19,2.12c-0.07,0.73-0.13,1.37-0.17,1.93c-0.05,0.56-0.08,1.03-0.1,1.42c-0.16,3.12-0.49,6.33-0.99,9.62
		c-0.5,3.29-1.13,6.43-1.88,9.42c-1.21,4.94-2.96,9.17-5.26,12.68c-2.32,3.55-5.54,5.33-9.64,5.33c-2.69,0-5.4-0.54-8.13-1.61
		c-2.71-1.05-5-2.52-6.87-4.41c-1.12-1.32-1.67-2.23-1.67-2.73c0-0.57,0.17-1.22,0.51-1.95c0.36-0.71,0.77-1.06,1.23-1.06
		c0.25,0,0.47,0.14,0.65,0.41c0.77,1.09,1.51,1.96,2.22,2.6c3.03,2.69,6.97,4.03,11.83,4.03c1.91,0,3.59-0.91,5.02-2.73
		c0.73-0.89,1.37-1.85,1.93-2.87s1.05-2.1,1.49-3.21c0.43-1.12,0.82-2.26,1.16-3.42s0.65-2.35,0.92-3.55c0.23-1.12,0.4-2,0.53-2.67
		c0.13-0.66,0.2-1.1,0.22-1.33c0.11-0.96,0.19-1.88,0.24-2.77c0.04-0.89,0.14-1.77,0.27-2.63c-0.64,0.3-1.95,1.05-3.93,2.26
		c-1.16,0.71-2.22,1.34-3.18,1.91c-0.96,0.57-1.81,1.07-2.56,1.5c-1.5,0.89-3.2,1.73-5.09,2.53c-1.91,0.8-3.49,1.2-4.72,1.2
		c-2.14,0-3.79-0.85-4.96-2.56s-1.74-3.68-1.74-5.91c0-1.59,0.17-3.37,0.51-5.33c0.18-0.98,0.37-1.9,0.56-2.75
		c0.19-0.85,0.4-1.66,0.63-2.41c0.23-0.75,0.5-1.65,0.8-2.7c0.31-1.05,0.68-2.26,1.11-3.62c0.23-0.75,0.48-1.41,0.75-1.97
		c0.27-0.56,0.59-1.03,0.94-1.4c0.35-0.38,0.77-0.65,1.25-0.84c0.48-0.18,1.06-0.27,1.74-0.27c0.66,0,1.18,0.38,1.57,1.13
		c0.36,0.71,0.55,1.44,0.55,2.19c0,0.46-0.1,0.87-0.31,1.23c-0.11,0.18-0.27,0.44-0.48,0.79s-0.47,0.76-0.79,1.26
		c-0.32,0.5-0.57,0.92-0.75,1.25c-0.18,0.33-0.3,0.59-0.34,0.77c-0.18,0.55-0.34,1.03-0.48,1.44s-0.26,0.75-0.38,1.03
		c-0.09,0.27-0.19,0.6-0.31,0.97c-0.11,0.38-0.25,0.81-0.41,1.32c-0.3,0.98-0.51,1.87-0.63,2.68c-0.13,0.81-0.19,1.67-0.19,2.58
		c0,0.91,0.18,2.02,0.55,3.32c0.39,1.34,0.91,2.02,1.57,2.02c2,0,4.43-0.58,7.28-1.74c2.85-1.18,5.42-2.72,7.72-4.61
		c2.3-1.89,3.69-3.79,4.17-5.71c0.09-0.27,0.16-0.68,0.21-1.23c0.04-0.55,0.08-1.16,0.12-1.83c0.03-0.67,0.06-1.37,0.08-2.1
		c0.02-0.73,0.05-1.43,0.08-2.1c0.04-0.67,0.07-1.28,0.12-1.81c0.04-0.54,0.11-0.94,0.21-1.21c0.59-2.1,1.55-3.14,2.87-3.14
		c1.25,0,2.03,0.32,2.32,0.96C334.97,101.11,335.13,102.2,335.13,103.68z"/>
	<path class="st0" d="M373.76,111.37c0,0.73-0.03,1.42-0.1,2.08c-0.07,0.66-0.17,1.3-0.31,1.91s-0.32,1.24-0.55,1.86
		c-0.23,0.63-0.5,1.27-0.82,1.93c-0.32,0.71-0.9,1.55-1.74,2.53c-0.84,0.98-1.85,1.99-3.02,3.04c-1.17,1.05-2.46,2.08-3.86,3.11
		c-1.4,1.03-2.82,1.95-4.25,2.77s-2.84,1.48-4.22,1.98c-1.38,0.5-2.63,0.75-3.74,0.75c-1.53,0-2.86-0.26-4-0.77
		c-1.14-0.51-2.08-1.18-2.84-2.02c-0.75-0.83-1.32-1.78-1.69-2.85c-0.38-1.07-0.56-2.15-0.56-3.25c0-0.73,0.09-1.56,0.27-2.5
		c0.18-0.93,0.42-1.9,0.72-2.91c0.3-1,0.65-2.03,1.06-3.08c0.41-1.05,0.84-2.05,1.3-3.01c0.46-0.96,0.92-1.85,1.4-2.67
		s0.95-1.52,1.4-2.08c0.8-1,1.76-1.98,2.89-2.94c1.13-0.96,2.36-1.81,3.71-2.55c1.34-0.74,2.79-1.34,4.32-1.79
		c1.54-0.46,3.13-0.68,4.77-0.68c1.23,0,2.44,0.3,3.62,0.91c1.18,0.6,2.24,1.42,3.16,2.44c0.92,1.03,1.67,2.21,2.24,3.55
		C373.47,108.51,373.76,109.91,373.76,111.37z M368.42,112.36c0-2.26-0.64-4.02-1.93-5.3c-1.29-1.28-3.14-1.91-5.55-1.91
		c-0.82,0-1.65,0.22-2.5,0.65c-0.84,0.43-1.65,0.97-2.43,1.61c-0.78,0.64-1.49,1.32-2.14,2.03c-0.65,0.72-1.19,1.36-1.62,1.93
		c-0.43,0.59-0.91,1.4-1.44,2.41c-0.52,1.01-1.02,2.1-1.49,3.25c-0.47,1.15-0.85,2.3-1.16,3.45c-0.31,1.15-0.46,2.16-0.46,3.02
		c0,0.52,0.1,1.05,0.31,1.59c0.21,0.54,0.5,1.01,0.87,1.44c0.38,0.42,0.83,0.77,1.35,1.04c0.52,0.27,1.1,0.41,1.74,0.41
		c0.68,0,1.57-0.21,2.65-0.62c1.08-0.41,2.23-0.97,3.45-1.69s2.44-1.57,3.67-2.56s2.34-2.07,3.33-3.23
		c0.99-1.16,1.79-2.38,2.41-3.66C368.12,114.95,368.42,113.66,368.42,112.36z"/>
	<path class="st0" d="M418.19,114.82c0,0.34-0.06,0.71-0.19,1.09c-0.13,0.39-0.31,0.7-0.56,0.92c-0.25,0.18-0.91,0.27-1.98,0.27
		c-0.46,0-1.16-0.15-2.12-0.44c-0.96-0.3-1.72-0.44-2.29-0.44c-0.18,0-0.42,0.01-0.7,0.03c-0.29,0.02-0.59,0.05-0.91,0.07
		c-0.32,0.02-0.62,0.05-0.91,0.07c-0.29,0.02-0.52,0.03-0.7,0.03c-0.73,0-1.86-0.07-3.38-0.21c-1.55-0.14-2.69-0.21-3.42-0.21
		c-1.05,0-2.63,0.07-4.75,0.21s-3.73,0.21-4.82,0.21s-1.98-0.12-2.65-0.36s-1.01-0.78-1.01-1.62c0-0.5,0.19-0.96,0.58-1.37
		c0.39-0.41,0.85-0.67,1.4-0.79c2.42-0.48,4.23-0.72,5.43-0.72c0.32,0,0.79,0.07,1.4,0.21c0.32,0.05,0.58,0.09,0.77,0.12
		c0.19,0.03,0.33,0.05,0.43,0.05h2.5c2.07,0,3.89-0.03,5.45-0.1s2.9-0.18,4.02-0.34c0.98-0.14,1.98-0.21,3.01-0.21
		c0.43,0,1.2,0.22,2.29,0.65c1.12,0.46,1.9,0.8,2.36,1.03c0.21,0.14,0.38,0.4,0.53,0.79C418.12,114.15,418.19,114.5,418.19,114.82z"
		/>
	<path class="st0" d="M460.54,103.68c0,0.39-0.01,0.84-0.03,1.35c-0.02,0.51-0.06,1.1-0.1,1.76c-0.05,0.64-0.1,1.3-0.15,1.98
		c-0.06,0.68-0.12,1.39-0.19,2.12c-0.07,0.73-0.13,1.37-0.17,1.93c-0.05,0.56-0.08,1.03-0.1,1.42c-0.16,3.12-0.49,6.33-0.99,9.62
		c-0.5,3.29-1.13,6.43-1.88,9.42c-1.21,4.94-2.96,9.17-5.26,12.68c-2.32,3.55-5.54,5.33-9.64,5.33c-2.69,0-5.4-0.54-8.13-1.61
		c-2.71-1.05-5-2.52-6.87-4.41c-1.12-1.32-1.67-2.23-1.67-2.73c0-0.57,0.17-1.22,0.51-1.95c0.36-0.71,0.77-1.06,1.23-1.06
		c0.25,0,0.47,0.14,0.65,0.41c0.77,1.09,1.51,1.96,2.22,2.6c3.03,2.69,6.97,4.03,11.83,4.03c1.91,0,3.59-0.91,5.02-2.73
		c0.73-0.89,1.37-1.85,1.93-2.87s1.05-2.1,1.49-3.21c0.43-1.12,0.82-2.26,1.16-3.42s0.65-2.35,0.92-3.55c0.23-1.12,0.4-2,0.53-2.67
		c0.13-0.66,0.2-1.1,0.22-1.33c0.11-0.96,0.19-1.88,0.24-2.77c0.04-0.89,0.14-1.77,0.27-2.63c-0.64,0.3-1.95,1.05-3.93,2.26
		c-1.16,0.71-2.22,1.34-3.18,1.91c-0.96,0.57-1.81,1.07-2.56,1.5c-1.5,0.89-3.2,1.73-5.09,2.53c-1.91,0.8-3.49,1.2-4.72,1.2
		c-2.14,0-3.79-0.85-4.96-2.56s-1.74-3.68-1.74-5.91c0-1.59,0.17-3.37,0.51-5.33c0.18-0.98,0.37-1.9,0.56-2.75
		c0.19-0.85,0.4-1.66,0.63-2.41c0.23-0.75,0.5-1.65,0.8-2.7c0.31-1.05,0.68-2.26,1.11-3.62c0.23-0.75,0.48-1.41,0.75-1.97
		c0.27-0.56,0.59-1.03,0.94-1.4c0.35-0.38,0.77-0.65,1.25-0.84c0.48-0.18,1.06-0.27,1.74-0.27c0.66,0,1.18,0.38,1.57,1.13
		c0.36,0.71,0.55,1.44,0.55,2.19c0,0.46-0.1,0.87-0.31,1.23c-0.11,0.18-0.27,0.44-0.48,0.79s-0.47,0.76-0.79,1.26
		c-0.32,0.5-0.57,0.92-0.75,1.25c-0.18,0.33-0.3,0.59-0.34,0.77c-0.18,0.55-0.34,1.03-0.48,1.44s-0.26,0.75-0.38,1.03
		c-0.09,0.27-0.19,0.6-0.31,0.97c-0.11,0.38-0.25,0.81-0.41,1.32c-0.3,0.98-0.51,1.87-0.63,2.68c-0.13,0.81-0.19,1.67-0.19,2.58
		c0,0.91,0.18,2.02,0.55,3.32c0.39,1.34,0.91,2.02,1.57,2.02c2,0,4.43-0.58,7.28-1.74c2.85-1.18,5.42-2.72,7.72-4.61
		c2.3-1.89,3.69-3.79,4.17-5.71c0.09-0.27,0.16-0.68,0.21-1.23c0.04-0.55,0.08-1.16,0.12-1.83c0.03-0.67,0.06-1.37,0.08-2.1
		c0.02-0.73,0.05-1.43,0.08-2.1c0.04-0.67,0.07-1.28,0.12-1.81c0.04-0.54,0.11-0.94,0.21-1.21c0.59-2.1,1.55-3.14,2.87-3.14
		c1.25,0,2.03,0.32,2.32,0.96C460.38,101.11,460.54,102.2,460.54,103.68z"/>
	<path class="st0" d="M517.41,104.05c0,0.39-0.14,0.81-0.41,1.26c-0.27,0.46-0.63,0.92-1.06,1.38c-0.43,0.47-0.92,0.92-1.47,1.37
		s-1.09,0.85-1.64,1.23s-1.07,0.71-1.55,0.99c-0.49,0.29-0.9,0.5-1.21,0.63c-0.59,0.25-1.37,0.47-2.34,0.67
		c-0.97,0.19-1.98,0.36-3.03,0.5c-1.05,0.14-2.07,0.25-3.08,0.32c-1,0.08-1.85,0.12-2.53,0.12c-0.27,0-0.65-0.05-1.13-0.14
		c-0.48-0.09-0.97-0.21-1.47-0.34c-0.5-0.14-0.97-0.29-1.42-0.46c-0.45-0.17-0.77-0.35-0.97-0.53c0.21,0.87,0.39,1.74,0.55,2.61
		c0.16,0.88,0.24,1.78,0.24,2.72c0,0.41-0.05,0.91-0.15,1.5c-0.1,0.59-0.24,1.19-0.41,1.79c-0.17,0.6-0.36,1.19-0.56,1.74
		c-0.21,0.56-0.42,1.02-0.65,1.38c-0.59,1-1.2,1.91-1.83,2.73s-1.33,1.58-2.12,2.27c-0.79,0.7-1.67,1.35-2.65,1.97
		c-0.98,0.62-2.11,1.21-3.38,1.78c-1.37,0.59-2.74,1.01-4.12,1.25c-1.38,0.24-2.81,0.36-4.29,0.36c-0.93,0-1.77-0.27-2.5-0.82
		c-0.73-0.55-1.34-1.28-1.85-2.2c-0.5-0.92-0.88-1.99-1.14-3.2c-0.26-1.21-0.39-2.47-0.39-3.79c0-0.34,0.03-0.76,0.08-1.26
		c0.06-0.5,0.14-1.01,0.24-1.54c0.1-0.52,0.21-1.03,0.32-1.5c0.11-0.48,0.23-0.89,0.34-1.23c0.32-0.96,0.77-2.05,1.37-3.28
		c0.59-1.23,1.29-2.49,2.08-3.78c0.8-1.29,1.69-2.55,2.67-3.79c0.98-1.24,2-2.35,3.08-3.33c1.07-0.98,2.19-1.77,3.35-2.36
		c1.16-0.59,2.32-0.89,3.49-0.89c0.39,0,0.7,0.06,0.94,0.17c0.24,0.11,0.44,0.26,0.62,0.44c0.17,0.18,0.32,0.38,0.46,0.58
		s0.3,0.41,0.48,0.62c0.07,0.11,0.17,0.17,0.31,0.17c0.18,0,0.41-0.05,0.68-0.14c0.27-0.09,0.58-0.14,0.92-0.14
		c0.43,0,0.97,0.28,1.61,0.84c0.64,0.56,1.3,1.17,2,1.85c0.7,0.67,1.39,1.29,2.09,1.85c0.69,0.56,1.32,0.84,1.86,0.84
		c0.62,0,1.28-0.01,1.98-0.03c0.71-0.02,1.42-0.06,2.15-0.12c0.73-0.06,1.45-0.13,2.15-0.22c0.71-0.09,1.36-0.19,1.95-0.31
		c0.16-0.05,0.54-0.15,1.13-0.31c0.59-0.16,1.28-0.35,2.07-0.56c0.79-0.22,1.62-0.45,2.5-0.7c0.88-0.25,1.69-0.48,2.44-0.7
		c0.75-0.22,1.37-0.39,1.86-0.53c0.49-0.14,0.76-0.21,0.8-0.21c0.14,0,0.26,0.03,0.38,0.1
		C517.36,103.75,517.41,103.87,517.41,104.05z M490.75,109.52c-0.14-0.46-0.41-0.9-0.8-1.33c-0.4-0.43-0.86-0.82-1.37-1.16
		c-0.51-0.34-1.05-0.62-1.62-0.84c-0.57-0.22-1.11-0.32-1.61-0.32c-0.41,0-0.81,0.07-1.2,0.21c-0.39,0.14-0.77,0.31-1.15,0.53
		c-0.38,0.22-0.73,0.46-1.08,0.72c-0.34,0.26-0.66,0.51-0.96,0.73c-0.89,0.75-1.74,1.81-2.55,3.16c-0.81,1.36-1.52,2.81-2.12,4.38
		c-0.6,1.56-1.09,3.12-1.45,4.67c-0.37,1.55-0.55,2.89-0.55,4.03c0,0.5,0.08,0.99,0.26,1.45c0.17,0.47,0.42,0.88,0.73,1.23
		c0.32,0.35,0.69,0.64,1.13,0.85c0.43,0.22,0.91,0.32,1.44,0.32c1.37,0,2.63-0.24,3.79-0.73c1.16-0.49,2.22-1.16,3.16-2.02
		c0.94-0.85,1.78-1.87,2.51-3.06c0.73-1.18,1.34-2.47,1.85-3.85c0.5-1.38,0.88-2.83,1.14-4.36
		C490.59,112.61,490.73,111.07,490.75,109.52z"/>
	<path class="st0" d="M571.59,103.64c0,0.23-0.07,0.49-0.21,0.79c-0.84,1.66-1.82,3.38-2.94,5.16c-1.12,1.78-2.32,3.52-3.62,5.23
		s-2.66,3.32-4.08,4.84c-1.42,1.52-2.85,2.85-4.27,4c-1.42,1.15-2.83,2.06-4.21,2.73c-1.38,0.67-2.67,1.01-3.88,1.01
		c-2.64,0-4.71-1-6.2-3.01c-1.49-2-2.29-4.97-2.38-8.89l-0.44-0.17c-0.23,0.23-0.6,0.7-1.11,1.4c-0.51,0.71-1.13,1.52-1.85,2.44
		c-0.72,0.92-1.52,1.89-2.39,2.89c-0.88,1-1.78,1.91-2.72,2.73c-0.57,0.48-1.26,1.05-2.07,1.73c-0.81,0.67-1.72,1.32-2.73,1.95
		c-1.01,0.63-2.13,1.17-3.33,1.64c-1.21,0.47-2.48,0.73-3.83,0.8c-1.62,0-2.89-0.31-3.83-0.92c-0.93-0.62-1.64-1.4-2.12-2.36
		s-0.78-2.02-0.91-3.18s-0.19-2.29-0.19-3.38c0-0.14,0.02-0.48,0.07-1.03c0.04-0.55,0.11-1.24,0.21-2.07
		c0.09-0.83,0.21-1.76,0.36-2.79c0.15-1.03,0.33-2.07,0.55-3.13c0.22-1.06,0.47-2.11,0.75-3.14c0.28-1.04,0.62-1.99,1.01-2.85
		c0.21-0.48,0.39-0.92,0.56-1.33c0.17-0.41,0.35-0.76,0.55-1.04c0.19-0.28,0.42-0.51,0.67-0.68c0.25-0.17,0.56-0.27,0.92-0.29
		c0.46,0,0.84,0.09,1.15,0.27c0.31,0.18,0.55,0.42,0.73,0.7c0.18,0.29,0.31,0.6,0.39,0.94s0.12,0.68,0.12,1.03s-0.15,1.01-0.46,2.02
		c-0.31,1-0.64,2.22-1.01,3.66c-0.37,1.44-0.7,3.04-1.01,4.8c-0.31,1.77-0.46,3.59-0.46,5.49c0,0.36,0.03,0.79,0.1,1.28
		c0.07,0.49,0.21,0.96,0.41,1.4s0.48,0.82,0.84,1.13c0.35,0.31,0.81,0.46,1.38,0.46c0.77-0.05,1.57-0.21,2.39-0.5
		c0.82-0.28,1.63-0.65,2.44-1.09c0.81-0.44,1.59-0.95,2.34-1.5c0.75-0.56,1.44-1.13,2.05-1.73c0.66-0.62,1.36-1.33,2.1-2.14
		c0.74-0.81,1.46-1.65,2.17-2.53c0.71-0.88,1.37-1.75,1.98-2.61c0.62-0.87,1.13-1.66,1.54-2.39c0.21-0.39,0.5-0.96,0.87-1.71
		c0.38-0.75,0.75-1.55,1.13-2.39c0.38-0.84,0.72-1.64,1.03-2.39c0.31-0.75,0.51-1.32,0.6-1.71c0.09-0.34,0.17-0.66,0.22-0.96
		c0.06-0.3,0.12-0.59,0.19-0.87c0.07-0.28,0.15-0.59,0.24-0.91c0.09-0.32,0.21-0.68,0.34-1.09c0.07-0.16,0.2-0.34,0.39-0.53
		c0.19-0.19,0.43-0.37,0.7-0.53c0.27-0.16,0.56-0.29,0.85-0.39c0.3-0.1,0.58-0.15,0.85-0.15c0.64,0,1.12,0.19,1.45,0.58
		c0.33,0.39,0.52,0.87,0.56,1.44c0,0.02-0.05,0.29-0.15,0.79c-0.1,0.5-0.23,1.16-0.39,1.98c-0.16,0.82-0.33,1.75-0.5,2.8
		c-0.17,1.05-0.34,2.13-0.5,3.23c-0.16,1.11-0.29,2.19-0.39,3.25c-0.1,1.06-0.15,2.01-0.15,2.85c0,2.42,0.4,4.28,1.21,5.59
		c0.81,1.31,1.87,1.97,3.2,1.97c1.14,0,2.33-0.34,3.57-1.01c1.24-0.67,2.5-1.56,3.76-2.65c1.27-1.09,2.51-2.32,3.73-3.67
		c1.22-1.36,2.39-2.71,3.5-4.07c1.12-1.36,2.15-2.65,3.11-3.88s1.79-2.27,2.5-3.11c0.71-0.75,1.26-1.13,1.67-1.13
		c0.25,0,0.46,0.09,0.62,0.27C571.51,103.18,571.59,103.39,571.59,103.64z"/>
	<path class="st0" d="M622.14,109.76c0,0.43-0.07,0.87-0.22,1.32s-0.33,0.89-0.55,1.33s-0.46,0.88-0.73,1.3
		c-0.27,0.42-0.54,0.83-0.79,1.21c-0.66,1.03-1.44,2.07-2.32,3.13s-1.84,2.09-2.85,3.09c-1.01,1-2.06,1.95-3.13,2.84
		c-1.07,0.89-2.12,1.67-3.14,2.36c-0.82,0.55-1.6,1.06-2.34,1.54s-1.49,0.89-2.24,1.23s-1.54,0.62-2.36,0.82s-1.72,0.31-2.7,0.31
		c-1.89,0-3.43-0.48-4.61-1.44c-0.59-0.48-1.11-1.1-1.56-1.86c-0.44-0.76-0.83-1.61-1.16-2.55c-0.33-0.93-0.62-1.93-0.85-2.97
		c-0.24-1.05-0.44-2.08-0.6-3.11c-0.21-1.28-0.4-2.42-0.58-3.44c-0.18-1.01-0.39-1.87-0.63-2.56c-0.24-0.69-0.53-1.23-0.87-1.61
		s-0.79-0.56-1.33-0.56c-0.43,0-0.84,0.05-1.23,0.14c-0.39,0.09-0.79,0.27-1.21,0.55s-0.88,0.66-1.38,1.16
		c-0.5,0.5-1.09,1.16-1.76,1.98s-1.44,1.82-2.31,3.01c-0.87,1.19-1.88,2.6-3.04,4.24c-0.57,0.8-1.24,1.67-2.02,2.63
		c-0.78,0.96-1.57,1.87-2.38,2.73c-0.81,0.87-1.6,1.63-2.38,2.29c-0.78,0.66-1.46,1.08-2.05,1.26c-2.01-0.43-3.01-2.93-3.01-7.49
		c0-1.21,0.14-3.04,0.41-5.5c0.14-1.12,0.3-2.28,0.48-3.5c0.18-1.22,0.41-2.44,0.68-3.66c0.27-1.22,0.59-2.4,0.94-3.55
		c0.35-1.15,0.77-2.22,1.25-3.2c0.23-0.46,0.47-0.81,0.72-1.08c0.25-0.26,0.51-0.46,0.77-0.58c0.26-0.13,0.53-0.21,0.82-0.24
		c0.28-0.03,0.57-0.05,0.87-0.05c0.36,0,0.69,0.25,0.97,0.75c0.28,0.5,0.43,1.2,0.43,2.08c0,0.55-0.05,1.06-0.14,1.54
		c-0.09,0.48-0.22,0.97-0.38,1.47c-0.16,0.5-0.33,1.04-0.51,1.62c-0.18,0.58-0.37,1.25-0.55,2c-0.14,0.62-0.29,1.3-0.46,2.05
		c-0.17,0.75-0.33,1.52-0.48,2.29c-0.15,0.77-0.27,1.53-0.38,2.27c-0.1,0.74-0.15,1.41-0.15,2c0,0.41,0.07,0.83,0.21,1.26
		c0.64-0.07,1.69-1.03,3.14-2.87c0.75-0.93,1.58-1.96,2.48-3.08c0.9-1.12,1.87-2.35,2.92-3.69c0.77-1,1.54-1.94,2.31-2.8
		c0.76-0.87,1.56-1.62,2.38-2.27s1.69-1.16,2.61-1.54c0.92-0.38,1.94-0.56,3.06-0.56c1.18,0,2.17,0.26,2.96,0.77
		c0.79,0.51,1.42,1.22,1.9,2.12c0.48,0.9,0.85,1.98,1.11,3.23c0.26,1.25,0.47,2.63,0.63,4.14c0.14,1.28,0.27,2.54,0.39,3.79
		c0.13,1.25,0.37,2.38,0.74,3.37c0.36,0.99,0.89,1.79,1.57,2.41s1.66,0.92,2.94,0.92c0.98,0,2-0.23,3.08-0.68
		c1.07-0.46,2.2-1.09,3.38-1.9c1.18-0.81,2.41-1.76,3.67-2.85c1.27-1.09,2.57-2.29,3.91-3.59c0.52-0.5,1.1-1.13,1.73-1.9
		c0.63-0.76,1.24-1.5,1.85-2.2c0.6-0.71,1.17-1.31,1.69-1.81c0.52-0.5,0.95-0.75,1.26-0.75c0.14,0,0.36,0.07,0.67,0.21
		C621.99,109.21,622.14,109.44,622.14,109.76z"/>
	<path class="st0" d="M644.49,101.87c0,0.32-0.09,0.73-0.27,1.25c-0.18,0.51-0.38,1.22-0.6,2.12c-0.22,0.9-0.42,2.05-0.6,3.45
		c-0.18,1.4-0.27,3.14-0.27,5.21c0,0.39-0.01,1.4-0.03,3.04c-0.02,1.64-0.03,3.68-0.03,6.12c0,5.38-0.67,9.9-2,13.55
		c-1.33,3.66-3.18,6.58-5.55,8.77c-0.71,0.66-1.44,1.25-2.2,1.76c-0.76,0.51-1.59,0.96-2.48,1.33s-1.86,0.66-2.91,0.85
		c-1.05,0.19-2.21,0.29-3.49,0.29c-1.03,0-2.14-0.21-3.33-0.62c-1.2-0.41-2.4-0.93-3.61-1.56c-1.21-0.63-2.36-1.32-3.47-2.07
		c-1.11-0.75-2.09-1.48-2.96-2.19c-0.87-0.71-1.55-1.34-2.07-1.9c-0.51-0.56-0.77-0.95-0.77-1.18c0-0.5,0.11-0.93,0.33-1.28
		c0.22-0.35,0.62-0.53,1.21-0.53c0.62,0,1.34,0.22,2.19,0.65c0.84,0.43,1.66,0.91,2.46,1.44c0.8,0.52,1.71,1.05,2.75,1.59
		c1.04,0.54,2.07,1.03,3.09,1.49c1.03,0.46,1.99,0.83,2.91,1.11c0.91,0.28,1.64,0.43,2.19,0.43c1.37,0,2.53-0.15,3.49-0.46
		s1.79-0.73,2.5-1.28c0.71-0.55,1.31-1.19,1.81-1.91c0.5-0.73,0.99-1.53,1.47-2.39c0.57-0.98,1.05-2.17,1.45-3.57
		s0.73-2.94,0.99-4.63c0.26-1.69,0.46-3.49,0.6-5.4s0.23-3.86,0.27-5.84c-1.09,1.16-2.39,2.34-3.9,3.52
		c-1.5,1.19-3.11,2.24-4.8,3.18c-1.7,0.93-3.43,1.7-5.21,2.29c-1.78,0.59-3.49,0.89-5.13,0.89c-0.98,0-1.78-0.27-2.39-0.8
		c-0.62-0.54-1.1-1.17-1.45-1.9c-0.35-0.73-0.6-1.47-0.74-2.22s-0.22-1.33-0.24-1.74v-0.21c0-0.73,0.15-1.58,0.46-2.56
		c0.31-0.98,0.71-2,1.21-3.06c0.5-1.06,1.06-2.11,1.69-3.14c0.63-1.04,1.24-1.99,1.83-2.85c0.98-1.44,2.19-2.93,3.62-4.48
		c1.44-1.55,3-2.97,4.7-4.26c1.7-1.29,3.5-2.35,5.4-3.18c1.9-0.83,3.81-1.25,5.73-1.25c0.93,0,1.78,0.11,2.53,0.32
		c0.75,0.22,1.4,0.51,1.93,0.89s0.95,0.81,1.25,1.32C644.35,100.76,644.49,101.3,644.49,101.87z M638.55,102.82
		c-0.18-0.16-0.42-0.27-0.7-0.34c-0.29-0.07-0.61-0.1-0.97-0.1c-0.8,0-1.67,0.15-2.63,0.46s-1.79,0.72-2.5,1.25
		c-1.5,1.16-2.84,2.34-4,3.54s-2.26,2.44-3.28,3.74c-0.32,0.41-0.69,0.93-1.11,1.56c-0.42,0.63-0.84,1.32-1.27,2.08
		c-0.42,0.76-0.84,1.56-1.25,2.38s-0.78,1.64-1.11,2.44c-0.33,0.81-0.59,1.58-0.79,2.32c-0.19,0.74-0.29,1.4-0.29,1.97
		c0.5,0.18,1.06,0.27,1.67,0.27c0.66,0,1.32-0.08,1.98-0.24c0.66-0.16,1.32-0.36,1.98-0.62c0.66-0.25,1.33-0.54,2.02-0.85
		c0.68-0.32,1.39-0.64,2.12-0.96c0.64-0.27,1.32-0.63,2.05-1.06c0.73-0.43,1.47-0.91,2.22-1.42s1.5-1.05,2.26-1.61
		c0.75-0.56,1.46-1.1,2.12-1.62c0.16-0.18,0.31-0.56,0.44-1.15s0.26-1.27,0.36-2.07c0.1-0.8,0.19-1.66,0.26-2.6
		c0.07-0.93,0.13-1.86,0.19-2.77c0.06-0.91,0.1-1.77,0.14-2.58C638.49,104.05,638.52,103.37,638.55,102.82z"/>
</g>
<g>
	<path class="st0" d="M232.9,194.64c0,0.78-0.33,1.98-0.99,3.62c-0.32,0.8-0.63,1.49-0.92,2.08c-0.3,0.59-0.59,1.09-0.89,1.5
		c-1.62,2.3-4.26,4.69-7.93,7.18c-3.69,2.48-7.37,4.66-11.04,6.53c-2.42,1.25-4.83,2.38-7.23,3.37c-2.4,0.99-4.83,1.88-7.26,2.65
		c-0.14,0.18-0.21,0.63-0.21,1.33v1.13c0,0.64,0.03,1.52,0.1,2.65c0.07,1.13,0.16,2.51,0.27,4.15c0.11,1.64,0.21,3.09,0.27,4.36
		c0.07,1.27,0.1,2.38,0.1,3.33c0,0.87-0.26,1.55-0.79,2.05c-0.52,0.5-1.22,0.75-2.08,0.75c-2.51,0-3.76-5.43-3.76-16.3v-0.99
		c0-1.28,0.08-2.65,0.24-4.14c0.16-1.48,0.38-3.27,0.65-5.37c0.11-0.66,0.22-1.34,0.32-2.05c0.1-0.71,0.21-1.46,0.32-2.26
		c0.23-1.57,0.44-2.93,0.65-4.07c0.21-1.14,0.46-2.24,0.75-3.32c0.07-0.3,0.15-0.65,0.24-1.06c0.09-0.41,0.19-0.88,0.31-1.4
		c0.23-1.05,0.47-1.97,0.72-2.77c0.25-0.77,0.57-1.53,0.96-2.26c0.39-0.73,0.88-1.41,1.47-2.05c0.36-0.14,0.76-0.21,1.2-0.21
		c0.84,0,1.48,0.26,1.9,0.77c0.42,0.51,0.63,1.21,0.63,2.1c0,0.11-0.09,0.46-0.26,1.04c-0.17,0.58-0.36,1.2-0.58,1.86
		c-0.22,0.66-0.42,1.29-0.62,1.88c-0.19,0.59-0.31,0.96-0.36,1.09c-0.18,0.48-0.35,1.13-0.51,1.95c-0.11,0.66-0.23,1.34-0.36,2.03
		c-0.13,0.7-0.26,1.43-0.39,2.2c-0.14,0.75-0.26,1.51-0.36,2.27c-0.1,0.76-0.19,1.49-0.26,2.19c-0.07,0.7-0.13,1.35-0.19,1.95
		c-0.06,0.6-0.1,1.12-0.12,1.55c0.73-0.32,1.61-0.69,2.65-1.13c1.04-0.43,2.24-0.93,3.61-1.5c2.69-1.12,5.08-2.18,7.18-3.18
		c2.12-1,4.18-2.11,6.19-3.32c1.32-0.8,2.6-1.7,3.85-2.7c1.24-1,2.46-2.1,3.64-3.28c2.37-2.42,3.55-4.66,3.55-6.73
		c0-0.96-0.93-1.69-2.8-2.19c-0.93-0.25-1.88-0.45-2.84-0.6c-0.96-0.15-1.9-0.26-2.84-0.34c-0.93-0.08-1.84-0.13-2.72-0.15
		c-0.88-0.02-1.69-0.03-2.44-0.03c-4.49,0-9.25,0.49-14.29,1.47c-2.44,0.52-5.89,1.55-10.36,3.08c-0.52,0.21-0.92,0.31-1.2,0.31
		c-0.5,0-0.92-0.15-1.25-0.46c-0.33-0.31-0.5-0.71-0.5-1.21c0-1.12,0.32-2.02,0.97-2.7s1.59-1.29,2.82-1.81
		c1.32-0.57,3.37-1.15,6.15-1.74c1.39-0.3,2.79-0.55,4.19-0.77c1.4-0.22,2.82-0.42,4.26-0.6c2.87-0.34,5.02-0.51,6.46-0.51
		c1.23,0,2.42,0.01,3.57,0.03c1.15,0.02,2.28,0.07,3.38,0.15c1.1,0.08,2.21,0.21,3.32,0.38c1.1,0.17,2.23,0.39,3.37,0.67
		c2.28,0.55,4.19,1.44,5.74,2.67C232.13,190.99,232.9,192.61,232.9,194.64z"/>
	<path class="st0" d="M264.69,214.15c0,0.73-0.03,1.42-0.1,2.08c-0.07,0.66-0.17,1.3-0.31,1.91s-0.32,1.24-0.55,1.86
		c-0.23,0.63-0.5,1.27-0.82,1.93c-0.32,0.71-0.9,1.55-1.74,2.53c-0.84,0.98-1.85,1.99-3.02,3.04c-1.17,1.05-2.46,2.08-3.86,3.11
		s-2.82,1.95-4.26,2.77s-2.84,1.48-4.22,1.98c-1.38,0.5-2.63,0.75-3.74,0.75c-1.53,0-2.86-0.26-4-0.77
		c-1.14-0.51-2.08-1.18-2.84-2.02c-0.75-0.83-1.32-1.78-1.69-2.85c-0.38-1.07-0.56-2.15-0.56-3.25c0-0.73,0.09-1.56,0.27-2.5
		c0.18-0.93,0.42-1.9,0.72-2.91c0.3-1,0.65-2.03,1.06-3.08c0.41-1.05,0.84-2.05,1.3-3.01c0.46-0.96,0.92-1.85,1.4-2.67
		s0.95-1.51,1.4-2.08c0.8-1,1.76-1.98,2.89-2.94s2.36-1.81,3.71-2.55c1.34-0.74,2.79-1.34,4.32-1.79c1.54-0.46,3.13-0.68,4.77-0.68
		c1.23,0,2.44,0.3,3.62,0.91c1.18,0.6,2.24,1.42,3.16,2.44s1.67,2.21,2.24,3.55C264.4,211.29,264.69,212.7,264.69,214.15z
		 M259.36,215.15c0-2.26-0.64-4.02-1.93-5.3c-1.29-1.28-3.14-1.91-5.55-1.91c-0.82,0-1.65,0.22-2.5,0.65
		c-0.84,0.43-1.65,0.97-2.43,1.61c-0.77,0.64-1.49,1.32-2.14,2.03c-0.65,0.72-1.19,1.36-1.62,1.93c-0.43,0.59-0.91,1.4-1.44,2.41
		c-0.52,1.01-1.02,2.1-1.49,3.25c-0.47,1.15-0.85,2.3-1.16,3.45s-0.46,2.16-0.46,3.02c0,0.52,0.1,1.05,0.31,1.59
		c0.21,0.54,0.5,1.01,0.87,1.44c0.38,0.42,0.83,0.77,1.35,1.04c0.52,0.27,1.1,0.41,1.74,0.41c0.68,0,1.57-0.21,2.65-0.62
		c1.08-0.41,2.23-0.97,3.45-1.69c1.22-0.72,2.44-1.57,3.67-2.56c1.23-0.99,2.34-2.07,3.33-3.23s1.79-2.38,2.41-3.66
		C259.05,217.73,259.36,216.44,259.36,215.15z"/>
	<path class="st0" d="M278.16,206.4c0.23,0,0.46,0.06,0.7,0.17c0.24,0.11,0.46,0.26,0.67,0.43c0.21,0.17,0.39,0.35,0.56,0.55
		s0.3,0.37,0.39,0.53c0.32,0.52,0.45,1.28,0.39,2.26c-0.06,0.98-0.23,2.15-0.53,3.52c-0.25,1.39-0.47,2.61-0.65,3.66
		c-0.18,1.05-0.32,2.07-0.43,3.06c-0.1,0.99-0.17,2.03-0.19,3.11c-0.02,1.08,0,2.35,0.07,3.81c0.59-1.21,1.16-2.57,1.71-4.1
		c0.55-1.53,1.16-3.12,1.85-4.77s1.48-3.31,2.39-4.97c0.91-1.66,2.02-3.25,3.32-4.75c1.05-1.21,2.24-2.28,3.59-3.21
		c1.34-0.93,2.78-1.49,4.31-1.67c0.57-0.07,1.18-0.04,1.85,0.08c0.66,0.13,1.28,0.33,1.86,0.62c0.58,0.29,1.07,0.64,1.47,1.08
		c0.4,0.43,0.63,0.92,0.7,1.47c0.02,0.16-0.04,0.39-0.19,0.68c-0.15,0.3-0.34,0.59-0.58,0.87c-0.24,0.29-0.49,0.54-0.75,0.77
		c-0.26,0.23-0.48,0.35-0.67,0.38c-0.07,0-0.23,0-0.5,0c-0.26,0-0.56,0-0.91,0s-0.68,0-1.01,0c-0.33,0-0.6,0-0.8,0
		c-0.71,0-1.31,0.08-1.81,0.24c-0.5,0.16-0.98,0.41-1.44,0.75c-0.46,0.34-0.93,0.79-1.42,1.33c-0.49,0.55-1.08,1.2-1.76,1.95
		s-1.37,1.73-2.05,2.94c-0.68,1.21-1.34,2.51-1.98,3.9c-0.64,1.39-1.24,2.8-1.81,4.24c-0.57,1.44-1.08,2.75-1.54,3.93
		c-0.27,0.71-0.54,1.46-0.79,2.27c-0.25,0.81-0.49,1.64-0.72,2.48c-0.23,0.84-0.43,1.69-0.62,2.55c-0.18,0.85-0.34,1.67-0.48,2.44
		c-0.02,0.18-0.2,0.37-0.53,0.56c-0.33,0.19-0.71,0.37-1.15,0.53c-0.43,0.16-0.84,0.29-1.23,0.39c-0.39,0.1-0.64,0.15-0.75,0.15
		c-0.62,0.07-1.12-0.16-1.52-0.68c-0.4-0.52-0.71-1.19-0.94-1.98c-0.23-0.8-0.38-1.66-0.46-2.58c-0.08-0.92-0.12-1.75-0.12-2.48
		c0-0.77,0.02-1.75,0.07-2.94c0.05-1.18,0.1-2.44,0.15-3.76c0.06-1.32,0.11-2.64,0.17-3.95c0.06-1.31,0.11-2.48,0.15-3.5
		c0.09-1.09,0.14-2,0.14-2.73c0-0.73-0.02-1.38-0.05-1.96c-0.03-0.58-0.06-1.15-0.09-1.71c-0.02-0.56,0-1.21,0.07-1.97
		c0.05-0.55,0.19-1.06,0.44-1.54c0.25-0.48,0.56-0.89,0.92-1.25c0.36-0.35,0.77-0.64,1.21-0.85S277.75,206.4,278.16,206.4z
		 M344.02,206.87c0,0.84-0.23,1.49-0.68,1.93c-0.46,0.45-0.98,0.84-1.57,1.18c-0.75,0.34-1.59,0.65-2.51,0.92s-1.87,0.52-2.84,0.74
		c-0.97,0.22-1.94,0.4-2.92,0.55c-0.98,0.15-1.91,0.27-2.8,0.36c-0.96,0.09-1.97,0.18-3.04,0.27c-1.07,0.09-2.11,0.19-3.11,0.29
		c-1,0.1-1.93,0.22-2.79,0.36s-1.54,0.31-2.07,0.51c-0.48,2.07-0.99,4.05-1.52,5.93c-0.54,1.88-0.99,3.75-1.35,5.62
		c-0.09,0.43-0.21,1.08-0.36,1.95c-0.15,0.87-0.29,1.77-0.43,2.72c-0.14,0.95-0.26,1.83-0.36,2.67c-0.1,0.83-0.15,1.43-0.15,1.79
		c0,0.93,0.15,1.64,0.44,2.1c0.3,0.47,0.62,0.84,0.97,1.13c0.35,0.28,0.68,0.55,0.97,0.8c0.3,0.25,0.44,0.63,0.44,1.13
		c0,0.32-0.15,0.63-0.46,0.92c-0.31,0.3-0.68,0.56-1.11,0.79c-0.43,0.23-0.89,0.4-1.38,0.53c-0.49,0.12-0.92,0.19-1.28,0.19
		c-0.66,0-1.25-0.18-1.78-0.55c-0.52-0.37-0.97-0.84-1.33-1.42c-0.36-0.58-0.65-1.25-0.85-2s-0.31-1.53-0.31-2.32
		c0-1.05,0.09-2.17,0.27-3.37c0.18-1.2,0.41-2.42,0.68-3.67c0.27-1.25,0.56-2.53,0.87-3.85c0.31-1.31,0.6-2.61,0.87-3.91
		c0.11-0.55,0.23-1.16,0.36-1.83c0.13-0.67,0.24-1.31,0.36-1.91c0.11-0.6,0.21-1.12,0.27-1.55c0.07-0.43,0.1-0.68,0.1-0.75
		c0-0.36-0.13-0.64-0.39-0.84c-0.26-0.19-0.58-0.29-0.94-0.29c-0.27,0-0.57,0.03-0.89,0.08c-0.32,0.06-0.64,0.13-0.96,0.21
		c-0.32,0.08-0.63,0.15-0.94,0.21c-0.31,0.06-0.59,0.09-0.84,0.09c-0.41,0-0.8-0.09-1.16-0.27c-0.36-0.18-0.68-0.42-0.96-0.72
		c-0.27-0.3-0.48-0.64-0.63-1.03c-0.15-0.39-0.22-0.79-0.22-1.2c0-0.32,0.13-0.62,0.39-0.89c0.26-0.27,0.59-0.51,0.99-0.7
		c0.4-0.19,0.82-0.35,1.26-0.46c0.44-0.11,0.85-0.17,1.21-0.17c0.3,0,0.62-0.01,0.96-0.03c0.34-0.02,0.68-0.05,1.01-0.09
		c0.33-0.03,0.64-0.07,0.92-0.1c0.28-0.04,0.53-0.05,0.73-0.05c0.14,0,0.3-0.01,0.48-0.03c0.18-0.02,0.37-0.09,0.56-0.19
		c0.19-0.1,0.37-0.27,0.53-0.51c0.16-0.24,0.3-0.57,0.41-1.01c0.16-0.71,0.35-1.49,0.58-2.36c0.23-0.87,0.46-1.74,0.7-2.61
		s0.47-1.74,0.68-2.58c0.22-0.84,0.4-1.59,0.56-2.26c0.21-0.64,0.38-1.32,0.53-2.05c0.15-0.73,0.28-1.46,0.41-2.19
		c0.13-0.73,0.27-1.44,0.43-2.12c0.16-0.68,0.36-1.31,0.62-1.88c0.5-1.18,1.31-1.78,2.43-1.78c1.69,0,2.53,0.93,2.53,2.8
		c0,1.16-0.25,2.5-0.75,4c-1.09,3.46-1.9,6.32-2.43,8.56c-0.52,2.25-0.79,3.75-0.79,4.53c0,0.84,0.42,1.26,1.26,1.26
		c1.03,0,1.99-0.02,2.89-0.05c0.9-0.03,1.81-0.09,2.73-0.17s1.9-0.18,2.92-0.29c1.03-0.11,2.18-0.24,3.45-0.38
		c0.91-0.11,1.78-0.25,2.61-0.41c0.83-0.16,1.6-0.31,2.31-0.46c0.71-0.15,1.33-0.29,1.88-0.43s1-0.23,1.37-0.27
		c0.25-0.02,0.5-0.06,0.73-0.1c0.24-0.04,0.44-0.05,0.62-0.02c0.17,0.04,0.31,0.13,0.41,0.27
		C343.97,206.29,344.02,206.53,344.02,206.87z"/>
	<path class="st0" d="M368.77,210.67c0,0.43-0.29,1.07-0.85,1.91c-0.57,0.84-1.06,1.37-1.47,1.57c-0.18,0.11-0.74,0.29-1.67,0.51
		c-2.69,0.64-5.96,1.15-9.81,1.54c-1.94,0.18-3.74,0.32-5.4,0.41c-1.66,0.09-3.21,0.14-4.65,0.14c-0.11,0.87-0.23,1.77-0.36,2.7
		c-0.13,0.93-0.25,1.87-0.36,2.8c-0.11,0.93-0.23,1.85-0.36,2.75c-0.13,0.9-0.23,1.74-0.32,2.51c-0.18,1.57-0.39,3.29-0.63,5.14
		c-0.24,1.86-0.54,4.05-0.91,6.58c-0.46,2.67-1,4.85-1.64,6.56c-0.91,2.44-2.19,4.55-3.83,6.32c-1.64,1.85-3.53,2.77-5.67,2.77
		c-0.66,0-1.41-0.23-2.26-0.68c-0.82-0.43-1.23-0.99-1.23-1.67c0-0.3,0.05-0.65,0.15-1.06s0.25-0.8,0.43-1.18
		c0.18-0.38,0.39-0.7,0.63-0.96s0.51-0.39,0.8-0.39c0.36,0,0.89,0.07,1.57,0.21s1.21,0.21,1.57,0.21c0.55-0.34,1.02-0.78,1.42-1.3
		c0.4-0.52,0.75-1.13,1.04-1.81c0.3-0.68,0.55-1.42,0.77-2.22c0.22-0.8,0.4-1.63,0.56-2.5c0.32-1.64,0.61-3.2,0.87-4.68
		c0.26-1.48,0.5-2.91,0.7-4.29s0.39-2.73,0.55-4.05c0.16-1.32,0.31-2.65,0.44-4c0.09-0.71,0.19-1.66,0.31-2.87
		c0.14-1.18,0.21-2.23,0.21-3.14c0.05-0.34-0.06-0.65-0.31-0.94c-0.25-0.28-0.53-0.56-0.84-0.84s-0.58-0.55-0.82-0.84
		s-0.34-0.6-0.29-0.94c0-0.41,0.62-1.39,1.85-2.94c1.25-1.53,1.95-2.75,2.08-3.66c0.09-0.46,0.19-1.04,0.29-1.76
		c0.1-0.72,0.23-1.56,0.39-2.51c0.3-1.91,0.57-3.49,0.82-4.72c0.27-1.25,0.65-2.55,1.13-3.9c0.48-1.34,1.05-2.6,1.71-3.76
		c1.03-1.71,2.36-3.28,4-4.72s3.29-2.15,4.96-2.15c1.71,0,3.18,0.62,4.41,1.85c1.25,1.19,1.88,2.66,1.88,4.41
		c0,2.21-0.83,4.56-2.5,7.04c-0.96,1.46-1.85,2.19-2.67,2.19h-0.14c0.41-1.59,0.62-3.28,0.62-5.06c0-1.28-0.18-2.57-0.55-3.9
		c-0.34-1.37-0.92-2.05-1.74-2.05c-0.98,0-1.88,0.54-2.7,1.61c-0.82,1.05-1.52,2.2-2.08,3.45c-0.77,1.73-1.49,4.04-2.15,6.94
		c-0.32,1.44-0.59,2.78-0.8,4.03c-0.22,1.25-0.37,2.43-0.46,3.52v1.47c0,0.93,1.14,1.4,3.42,1.4c1.91,0,3.67-0.02,5.28-0.05
		c1.61-0.03,3.09-0.1,4.46-0.19c1.37-0.09,2.77-0.23,4.2-0.41c1.44-0.18,2.91-0.43,4.41-0.75c0.18-0.02,0.36-0.04,0.55-0.05
		c0.18-0.01,0.38-0.02,0.58-0.02C368.63,210.26,368.77,210.39,368.77,210.67z"/>
	<path class="st0" d="M407.12,206.81c0,1.32-0.84,2.53-2.53,3.62c-0.73,0.48-1.57,0.93-2.53,1.35s-1.94,0.8-2.96,1.14
		s-2.02,0.63-3.02,0.87c-1,0.24-1.91,0.41-2.73,0.5c-0.39,0.05-1.7,0.11-3.93,0.21c-2.28,0.11-3.49,0.24-3.62,0.38
		c-0.41,0.41-0.7,1.05-0.85,1.91c-0.05,0.23-0.09,0.46-0.12,0.7c-0.03,0.24-0.06,0.55-0.09,0.94c-0.02,0.39-0.04,0.87-0.05,1.45
		c-0.01,0.58-0.02,1.32-0.02,2.21c0,0.55-0.05,1.14-0.15,1.78c-0.1,0.64-0.25,1.27-0.43,1.9c-0.18,0.63-0.41,1.23-0.68,1.81
		c-0.27,0.58-0.58,1.09-0.92,1.52c-0.52,0.71-1.18,1.41-1.97,2.12c-0.79,0.71-1.65,1.4-2.58,2.07c-0.93,0.67-1.93,1.31-2.97,1.9
		c-1.05,0.59-2.1,1.11-3.16,1.54s-2.1,0.77-3.11,1.03c-1.01,0.25-1.97,0.38-2.85,0.38c-1.53,0-2.79-0.26-3.79-0.79
		c-1-0.52-1.79-1.23-2.38-2.12s-0.99-1.92-1.23-3.11c-0.24-1.18-0.36-2.45-0.36-3.79c0-1.37,0.16-2.69,0.48-3.98
		c0.32-1.29,0.73-2.56,1.25-3.81c0.51-1.25,1.08-2.49,1.71-3.71c0.63-1.22,1.25-2.44,1.86-3.67c0.59-0.98,1.13-1.91,1.62-2.8
		c0.49-0.89,0.98-1.72,1.47-2.5c0.49-0.77,1.01-1.47,1.56-2.08s1.2-1.14,1.95-1.59c0.75-0.44,1.63-0.79,2.63-1.03
		c1-0.24,2.2-0.36,3.59-0.36c0.62,0,1.16,0.08,1.62,0.24c0.47,0.16,0.89,0.39,1.28,0.68c0.39,0.3,0.76,0.65,1.11,1.06
		c0.35,0.41,0.73,0.87,1.15,1.37c0.46,0.57,0.85,1.05,1.18,1.44c0.33,0.39,0.6,0.68,0.8,0.89c0.43,0.39,0.99,0.67,1.67,0.84
		c0.68,0.17,1.65,0.26,2.91,0.26c1.66,0,3.01-0.03,4.03-0.1s1.96-0.17,2.8-0.31c0.96-0.16,1.83-0.33,2.63-0.51
		c0.8-0.18,1.59-0.38,2.38-0.58c0.79-0.21,1.59-0.43,2.41-0.67c0.82-0.24,1.71-0.52,2.67-0.84c0.48-0.14,1.01-0.21,1.61-0.21
		C406.89,206.33,407.12,206.49,407.12,206.81z M379.91,215.49c0-0.91-0.07-1.59-0.21-2.03c-0.14-0.44-0.32-0.8-0.55-1.08
		c-0.23-0.27-0.49-0.55-0.79-0.82c-0.3-0.27-0.6-0.71-0.92-1.3c-0.34-0.64-0.64-1.1-0.91-1.4c-0.26-0.3-0.71-0.44-1.35-0.44
		c-1.6,0-3.12,0.8-4.58,2.39c-0.73,0.8-1.42,1.7-2.08,2.72c-0.66,1.01-1.28,2.14-1.85,3.37c-0.46,0.96-0.9,2-1.33,3.13
		c-0.43,1.13-0.82,2.27-1.16,3.44s-0.62,2.31-0.84,3.44c-0.22,1.13-0.32,2.18-0.32,3.16c0,0.41,0.09,0.81,0.27,1.2
		c0.18,0.39,0.46,0.73,0.82,1.03c0.36,0.3,0.8,0.54,1.32,0.72c0.51,0.18,1.11,0.27,1.79,0.27c0.5,0,1.13-0.15,1.9-0.44
		c0.76-0.3,1.54-0.66,2.34-1.09c0.8-0.43,1.54-0.89,2.24-1.38c0.69-0.49,1.24-0.93,1.62-1.32c1.09-1.16,1.95-2.22,2.56-3.18
		s1.07-1.93,1.37-2.92c0.3-0.99,0.48-2.07,0.55-3.25C379.87,218.5,379.91,217.11,379.91,215.49z"/>
	<path class="st0" d="M429.26,221.67c-1.82,2.53-3.67,4.82-5.55,6.87c-1.88,2.05-3.74,3.8-5.57,5.25s-3.62,2.57-5.37,3.37
		c-1.74,0.8-3.37,1.2-4.87,1.2c-2.44,0-4.36-1.05-5.76-3.14c-1.4-2.1-2.1-5.18-2.1-9.26c0-2.28,0.14-4.79,0.41-7.52
		s0.63-5.5,1.06-8.31c0.43-2.8,0.92-5.56,1.45-8.27c0.54-2.71,1.08-5.18,1.62-7.42c0.41-1.71,0.83-3.19,1.25-4.44
		c0.42-1.25,0.87-2.28,1.35-3.08c0.48-0.8,1-1.39,1.56-1.78c0.56-0.39,1.19-0.58,1.9-0.58c0.46,0,0.87,0.1,1.25,0.31
		c0.38,0.21,0.7,0.47,0.97,0.79c0.27,0.32,0.48,0.69,0.63,1.11s0.22,0.85,0.22,1.28c0,0.41-0.11,0.96-0.32,1.66
		c-0.22,0.7-0.49,1.46-0.82,2.31c-0.33,0.84-0.69,1.73-1.08,2.67c-0.39,0.93-0.76,1.83-1.13,2.68c-0.37,0.85-0.69,1.65-0.97,2.38
		c-0.29,0.73-0.48,1.32-0.6,1.78c-0.34,1.48-0.68,3.21-1.03,5.18c-0.34,1.97-0.66,4.01-0.94,6.12c-0.29,2.11-0.52,4.2-0.7,6.29
		c-0.18,2.08-0.27,3.99-0.27,5.72c0,1.53,0.14,2.79,0.41,3.78c0.27,0.99,0.62,1.78,1.04,2.36c0.42,0.58,0.88,0.99,1.37,1.23
		c0.49,0.24,0.95,0.36,1.38,0.36c0.8,0,1.67-0.21,2.63-0.63c0.96-0.42,1.96-1.01,3.03-1.76c1.06-0.75,2.15-1.63,3.28-2.65
		c1.13-1.01,2.26-2.11,3.4-3.3c1.14-1.18,2.27-2.43,3.38-3.74c1.12-1.31,2.19-2.64,3.21-3.98c0.39-0.52,0.69-0.92,0.92-1.2
		c0.23-0.27,0.44-0.41,0.65-0.41c0.25,0,0.44,0.14,0.56,0.43c0.13,0.29,0.19,0.66,0.19,1.11c0,0.37-0.06,0.77-0.17,1.21
		c-0.11,0.45-0.26,0.9-0.44,1.37c-0.18,0.47-0.4,0.93-0.65,1.38C429.8,220.83,429.54,221.26,429.26,221.67z"/>
	<path class="st0" d="M463.55,214.74c0.02,0.48-0.19,1.13-0.63,1.95c-0.45,0.82-1.05,1.75-1.81,2.79c-0.76,1.04-1.65,2.15-2.67,3.33
		c-1.01,1.19-2.08,2.37-3.2,3.55c-1.28,1.37-2.63,2.68-4.05,3.95c-1.42,1.26-2.95,2.49-4.56,3.67c-3.19,2.37-6.04,3.55-8.54,3.55
		c-2.76,0-4.9-0.92-6.43-2.77c-1.53-1.87-2.56-4.12-3.11-6.77c-0.55-2.62-0.82-5.32-0.82-8.1c0-1.16,0.14-2.97,0.41-5.43
		c0.14-1.23,0.27-2.29,0.41-3.18s0.28-1.61,0.44-2.15c0.32-1.07,0.99-2,2.02-2.8c1.05-0.84,2.14-1.26,3.28-1.26
		c0.62,0,0.92,0.58,0.92,1.74c0,0.78-0.07,1.65-0.22,2.63c-0.15,0.98-0.3,1.95-0.46,2.91c-0.3,1.8-0.51,3.41-0.65,4.84
		s-0.21,2.66-0.21,3.71c0,2.3,0.32,4.63,0.96,6.97c0.64,2.39,1.79,3.59,3.45,3.59c1.69,0,3.65-0.62,5.88-1.85
		c1.12-0.64,2.23-1.34,3.35-2.12c1.12-0.77,2.23-1.64,3.35-2.6c1.14-0.96,2.23-1.92,3.28-2.89c1.05-0.97,2.07-1.96,3.08-2.99
		c1-1.03,1.9-1.98,2.7-2.87c0.8-0.89,1.49-1.71,2.08-2.46c0.02-0.04,0.06-0.12,0.12-0.22c0.06-0.1,0.12-0.21,0.19-0.31
		c0.07-0.1,0.14-0.19,0.21-0.26s0.14-0.09,0.21-0.07c0.32,0,0.56,0.25,0.72,0.75C463.44,214.05,463.55,214.44,463.55,214.74z
		 M441.16,186.95c0,1.48-0.39,2.75-1.16,3.79c-0.75,1.05-1.86,1.57-3.32,1.57c-0.91,0-1.93-0.14-3.04-0.41
		c-1.09-0.27-1.64-0.72-1.64-1.33c0-1.12,0.35-2.18,1.04-3.2c0.69-1.01,1.53-1.84,2.51-2.48c0.77-0.46,1.29-0.68,1.54-0.68
		c1.3,0,2.3,0.18,3.01,0.53C440.81,185.1,441.16,185.83,441.16,186.95z"/>
	<path class="st0" d="M487.71,214.15c0,0.73-0.03,1.42-0.1,2.08c-0.07,0.66-0.17,1.3-0.31,1.91s-0.32,1.24-0.55,1.86
		c-0.23,0.63-0.5,1.27-0.82,1.93c-0.32,0.71-0.9,1.55-1.74,2.53c-0.84,0.98-1.85,1.99-3.02,3.04c-1.17,1.05-2.46,2.08-3.86,3.11
		c-1.4,1.03-2.82,1.95-4.25,2.77s-2.84,1.48-4.22,1.98c-1.38,0.5-2.63,0.75-3.74,0.75c-1.53,0-2.86-0.26-4-0.77
		c-1.14-0.51-2.08-1.18-2.84-2.02c-0.75-0.83-1.32-1.78-1.69-2.85c-0.38-1.07-0.56-2.15-0.56-3.25c0-0.73,0.09-1.56,0.27-2.5
		c0.18-0.93,0.42-1.9,0.72-2.91c0.3-1,0.65-2.03,1.06-3.08c0.41-1.05,0.84-2.05,1.3-3.01c0.46-0.96,0.92-1.85,1.4-2.67
		s0.95-1.51,1.4-2.08c0.8-1,1.76-1.98,2.89-2.94c1.13-0.96,2.36-1.81,3.71-2.55c1.34-0.74,2.79-1.34,4.32-1.79
		c1.54-0.46,3.13-0.68,4.77-0.68c1.23,0,2.44,0.3,3.62,0.91c1.18,0.6,2.24,1.42,3.16,2.44c0.92,1.03,1.67,2.21,2.24,3.55
		C487.43,211.29,487.71,212.7,487.71,214.15z M482.38,215.15c0-2.26-0.64-4.02-1.93-5.3c-1.29-1.28-3.14-1.91-5.55-1.91
		c-0.82,0-1.65,0.22-2.5,0.65c-0.84,0.43-1.65,0.97-2.43,1.61c-0.78,0.64-1.49,1.32-2.14,2.03c-0.65,0.72-1.19,1.36-1.62,1.93
		c-0.43,0.59-0.91,1.4-1.44,2.41c-0.52,1.01-1.02,2.1-1.49,3.25c-0.47,1.15-0.85,2.3-1.16,3.45c-0.31,1.15-0.46,2.16-0.46,3.02
		c0,0.52,0.1,1.05,0.31,1.59c0.21,0.54,0.5,1.01,0.87,1.44c0.38,0.42,0.83,0.77,1.35,1.04c0.52,0.27,1.1,0.41,1.74,0.41
		c0.68,0,1.57-0.21,2.65-0.62c1.08-0.41,2.23-0.97,3.45-1.69c1.22-0.72,2.44-1.57,3.67-2.56c1.23-0.99,2.34-2.07,3.33-3.23
		c0.99-1.16,1.79-2.38,2.41-3.66C482.07,217.73,482.38,216.44,482.38,215.15z"/>
</g>
</svg>
